<svg width="420" height="220" viewBox="0 0 420 220" fill="none" xmlns="http://www.w3.org/2000/svg">
  <g opacity=".7" stroke="#CFE8DC" stroke-width="1.4">
    <path d="M20 142C111 65 279 42 397 101"/>
    <path d="M48 172C154 91 288 82 407 125" stroke-dasharray="3 8"/>
  </g>
  <g fill="#55DDA1">
    <path d="M38 65l3.5 9 9 3.5-9 3.5-3.5 9-3.5-9-9-3.5 9-3.5 3.5-9Z"/>
    <path d="M352 38l2.8 7.1 7.2 2.9-7.2 2.8-2.8 7.2-2.9-7.2-7.1-2.8 7.1-2.9 2.9-7.1Z"/>
  </g>
  <g fill="#F34B9A">
    <circle cx="257" cy="20" r="4"/>
    <path d="M385 78l2.3 5.8 5.7 2.2-5.7 2.3-2.3 5.7-2.2-5.7-5.8-2.3 5.8-2.2 2.2-5.8Z"/>
  </g>
  <g transform="translate(142 19) rotate(10 99 87)">
    <path d="M38 103c-14 9-30 16-42 15 8 8 23 11 39 8" fill="#58DEA4" stroke="#101915" stroke-width="5" stroke-linecap="round"/>
    <path d="M59 73c-20 7-30 26-26 46 5 25 32 44 65 48 37 5 67-7 78-32 10-23 0-49-22-61-25-14-67-11-95-1Z" fill="#58DEA4" stroke="#101915" stroke-width="5"/>
    <path d="M65 128c-12 3-20 12-21 25 0 7 3 13 9 14 6 1 13-4 19-11" fill="#58DEA4" stroke="#101915" stroke-width="5" stroke-linecap="round"/>
    <path d="M139 133c7 8 14 14 21 14 8 0 12-8 10-15-2-10-9-16-18-19" fill="#58DEA4" stroke="#101915" stroke-width="5" stroke-linecap="round"/>
    <circle cx="103" cy="72" r="57" fill="#F7FBF9" stroke="#101915" stroke-width="5"/>
    <circle cx="103" cy="72" r="48" fill="#EEF7F2" stroke="#101915" stroke-width="3"/>
    <path d="M63 49l18-12 9 13M142 49l-18-12-9 13" fill="#fff" stroke="#101915" stroke-width="4" stroke-linejoin="round"/>
    <path d="M68 53c9-7 18-10 35-10 17 0 28 4 36 11v30c-8 18-22 27-37 27-17 0-29-9-36-26l2-32Z" fill="#fff" stroke="#101915" stroke-width="4" stroke-linejoin="round"/>
    <ellipse cx="86" cy="67" rx="13" ry="17" fill="#101915"/>
    <ellipse cx="121" cy="67" rx="13" ry="17" fill="#101915"/>
    <ellipse cx="90" cy="61" rx="5" ry="7" fill="#fff"/>
    <ellipse cx="125" cy="61" rx="5" ry="7" fill="#fff"/>
    <path d="M103 78c-4 0-7 2-7 5 0 4 4 6 7 6s7-2 7-6c0-3-3-5-7-5Z" fill="#101915"/>
    <path d="M80 88c5 12 18 16 23 6 7 11 20 7 25-6" stroke="#101915" stroke-width="4" stroke-linecap="round"/>
    <path d="M102 14V-1" stroke="#101915" stroke-width="4" stroke-linecap="round"/>
    <circle cx="102" cy="-4" r="5" fill="#F34B9A" stroke="#101915" stroke-width="3"/>
    <path d="M145 92c18-6 31-5 41 5" stroke="#101915" stroke-width="5" stroke-linecap="round"/>
    <circle cx="188" cy="99" r="7" fill="#58DEA4" stroke="#101915" stroke-width="4"/>
    <path d="M78 126h50l-6 27H85l-7-27Z" fill="#43C88E" stroke="#101915" stroke-width="4"/>
    <path d="M91 137h18" stroke="#101915" stroke-width="3" stroke-linecap="round"/>
  </g>
</svg>